<?xml version="1.0" encoding="utf-8"?>
<!-- Generator: Adobe Illustrator 19.0.1, SVG Export Plug-In . SVG Version: 6.00 Build 0)  -->
<svg version="1.1" id="Ebene_1" xmlns="http://www.w3.org/2000/svg" xmlns:xlink="http://www.w3.org/1999/xlink" x="0px" y="0px"
	 viewBox="0 0 309 78" enable-background="new 0 0 309 78" xml:space="preserve">
<path d="M0,0v78h309V0H0z M306,73.909l-67-15.6978v1.6778L303.4957,75H5.5043L69,60.1232v-1.6777L3,73.909V4.091l66,15.4635v-1.6777
	L5.5043,3h297.9913L239,18.111v1.6778L306,4.091V73.909z"/>
<g>
	<polygon points="87.0789,34.718 85.196,34.718 85.196,43.2815 91.2527,43.2815 91.2527,41.6985 87.0789,41.6985 	"/>
	<path d="M98.5496,34.5144c-2.6509,0-4.21,1.979-4.21,4.5215c0,2.4707,1.5591,4.4497,4.21,4.4497
		c2.6504,0,4.2095-1.979,4.2095-4.4497C102.759,36.4934,101.2,34.5144,98.5496,34.5144z M98.5496,41.9021
		c-1.6909,0-2.3267-1.439-2.3267-2.8662c0-1.499,0.6357-2.9385,2.3267-2.9385s2.3267,1.4395,2.3267,2.9385
		C100.8762,40.4631,100.2405,41.9021,98.5496,41.9021z"/>
	<path d="M110.4299,40.0554h1.8945c-0.1079,1.187-0.8154,1.8467-2.0386,1.8467c-1.6909,0-2.3267-1.439-2.3267-2.8662
		c0-1.499,0.6357-2.9385,2.3267-2.9385c0.8872,0,1.5952,0.4917,1.811,1.4395h1.7988c-0.2036-1.9434-1.8589-3.0225-3.6099-3.0225
		c-2.6509,0-4.21,1.979-4.21,4.5215c0,2.4707,1.5591,4.4497,4.21,4.4497c0.8276,0,1.6909-0.3242,2.3506-1.1758l0.1919,0.9717h1.1992
		v-4.6294h-3.5977V40.0554z"/>
	<path d="M121.7937,34.5144c-2.6509,0-4.21,1.979-4.21,4.5215c0,2.4707,1.5591,4.4497,4.21,4.4497
		c2.6504,0,4.2095-1.979,4.2095-4.4497C126.0032,36.4934,124.4441,34.5144,121.7937,34.5144z M121.7937,41.9021
		c-1.6909,0-2.3267-1.439-2.3267-2.8662c0-1.499,0.6357-2.9385,2.3267-2.9385s2.3267,1.4395,2.3267,2.9385
		C124.1204,40.4631,123.4846,41.9021,121.7937,41.9021z"/>
	<path d="M139.4094,40.0554h1.8945c-0.1074,1.187-0.8154,1.8467-2.0391,1.8467c-1.6904,0-2.3262-1.439-2.3262-2.8662
		c0-1.499,0.6357-2.9385,2.3262-2.9385c0.8877,0,1.5957,0.4917,1.8115,1.4395h1.7988c-0.2041-1.9434-1.8594-3.0225-3.6104-3.0225
		c-2.6504,0-4.2095,1.979-4.2095,4.5215c0,2.4707,1.5591,4.4497,4.2095,4.4497c0.8281,0,1.6914-0.3242,2.3516-1.1758l0.1914,0.9717
		h1.1992v-4.6294h-3.5977V40.0554z"/>
	<path d="M150.7727,34.5144c-2.6504,0-4.209,1.979-4.209,4.5215c0,2.4707,1.5586,4.4497,4.209,4.4497
		c2.6514,0,4.21-1.979,4.21-4.4497C154.9827,36.4934,153.4241,34.5144,150.7727,34.5144z M150.7727,41.9021
		c-1.6904,0-2.3262-1.439-2.3262-2.8662c0-1.499,0.6357-2.9385,2.3262-2.9385c1.6914,0,2.3271,1.4395,2.3271,2.9385
		C153.0999,40.4631,152.4641,41.9021,150.7727,41.9021z"/>
	<polygon points="160.5549,39.5994 164.7043,39.5994 164.7043,38.1365 160.5549,38.1365 160.5549,36.3015 165.0764,36.3015 
		165.0764,34.718 158.6711,34.718 158.6711,43.2815 165.1721,43.2815 165.1721,41.6985 160.5549,41.6985 	"/>
	<path d="M172.9729,38.2444c-2.1465-0.5518-2.5547-0.6357-2.5547-1.2954c0-0.7197,0.6963-0.9717,1.2959-0.9717
		c0.8994,0,1.6309,0.2642,1.6904,1.2954h1.8232c0-1.979-1.6426-2.7583-3.4297-2.7583c-1.5479,0-3.2031,0.8394-3.2031,2.5903
		c0,1.6074,1.2842,2.0991,2.5547,2.4351c1.2598,0.3354,2.543,0.4917,2.543,1.415c0,0.8755-1.0078,1.0674-1.667,1.0674
		c-1.0078,0-1.8955-0.4438-1.8955-1.583h-1.8223c-0.0244,2.1108,1.751,3.0464,3.6455,3.0464c2.3271,0,3.5625-1.1758,3.5625-2.7466
		C175.5159,38.7961,173.5969,38.4001,172.9729,38.2444z"/>
	<polygon points="190.1204,38.0046 186.6545,38.0046 186.6545,34.718 184.7708,34.718 184.7708,43.2815 186.6545,43.2815 
		186.6545,39.5876 190.1204,39.5876 190.1204,43.2815 192.0032,43.2815 192.0032,34.718 190.1204,34.718 	"/>
	<polygon points="197.9465,39.5994 202.0959,39.5994 202.0959,38.1365 197.9465,38.1365 197.9465,36.3015 202.468,36.3015 
		202.468,34.718 196.0627,34.718 196.0627,43.2815 202.5637,43.2815 202.5637,41.6985 197.9465,41.6985 	"/>
	<path d="M212.0081,39.2517v-0.0239c0.9473-0.3838,1.3545-1.1396,1.3545-2.147c0-1.2954-0.9707-2.3628-2.5059-2.3628h-4.6182v8.5635
		h1.8838v-3.3462h1.8828c0.9473,0,1.2949,0.396,1.4268,1.2954c0.0957,0.6836,0.0723,1.5112,0.2998,2.0508h1.8828
		c-0.3359-0.48-0.3232-1.4873-0.3594-2.0269C213.1956,40.3909,212.9309,39.4915,212.0081,39.2517z M210.1848,38.592h-2.0625v-2.4106
		h2.0625c0.8398,0,1.2949,0.3599,1.2949,1.1875C211.4797,38.2322,211.0247,38.592,210.1848,38.592z"/>
	<polygon points="219.1868,39.5994 223.3362,39.5994 223.3362,38.1365 219.1868,38.1365 219.1868,36.3015 223.7083,36.3015 
		223.7083,34.718 217.303,34.718 217.303,43.2815 223.804,43.2815 223.804,41.6985 219.1868,41.6985 	"/>
</g>
<g>
</g>
<g>
</g>
<g>
</g>
<g>
</g>
<g>
</g>
<g>
</g>
<g>
</g>
<g>
</g>
<g>
</g>
<g>
</g>
<g>
</g>
<g>
</g>
<g>
</g>
<g>
</g>
<g>
</g>
</svg>
